<?xml version="1.0" standalone="no"?>
<!DOCTYPE svg PUBLIC "-//W3C//DTD SVG 20010904//EN"
 "http://www.w3.org/TR/2001/REC-SVG-20010904/DTD/svg10.dtd">
<svg version="1.0" xmlns="http://www.w3.org/2000/svg"
 width="1430.000000pt" height="1430.000000pt" viewBox="0 0 1430.000000 1430.000000"
 preserveAspectRatio="xMidYMid meet">
<metadata>
Created by potrace 1.14, written by Peter Selinger 2001-2017
</metadata>
<g transform="translate(0.000000,1430.000000) scale(0.100000,-0.100000)"
fill="#000000" stroke="none">
<path d="M6838 14295 c-1 -1 -61 -6 -133 -9 -71 -4 -143 -9 -160 -11 -16 -2
-59 -7 -95 -10 -36 -3 -78 -7 -95 -10 -16 -2 -52 -7 -80 -9 -27 -3 -68 -8 -90
-11 -276 -43 -308 -48 -510 -89 -185 -38 -548 -134 -735 -196 -124 -41 -290
-99 -315 -110 -11 -5 -65 -27 -120 -48 -197 -78 -323 -135 -530 -238 -115 -57
-217 -109 -225 -114 -8 -5 -62 -36 -120 -68 -191 -107 -591 -361 -661 -420 -8
-7 -63 -49 -124 -94 -60 -46 -112 -85 -115 -88 -3 -3 -25 -21 -50 -40 -25 -19
-47 -37 -50 -40 -3 -3 -43 -37 -90 -76 -47 -39 -94 -80 -106 -90 -137 -122
-188 -169 -313 -294 -201 -200 -375 -391 -506 -554 -16 -21 -38 -47 -49 -59
-45 -53 -251 -333 -328 -447 -90 -131 -238 -366 -238 -376 0 -3 -12 -21 -26
-40 -15 -19 -23 -34 -19 -34 4 0 1 -7 -6 -16 -40 -47 -280 -525 -363 -721
-202 -477 -364 -990 -441 -1403 -3 -14 -7 -36 -10 -50 -13 -61 -36 -188 -41
-225 -2 -16 -6 -41 -9 -55 -2 -14 -7 -47 -11 -75 -3 -27 -7 -52 -9 -55 -2 -3
-6 -41 -10 -85 -4 -44 -9 -82 -10 -85 -2 -3 -6 -45 -10 -93 -4 -47 -8 -99 -10
-114 -13 -105 -20 -324 -20 -608 1 -356 7 -475 40 -790 4 -33 9 -71 11 -85 2
-14 6 -50 9 -80 3 -30 8 -62 10 -70 3 -8 7 -33 10 -55 3 -22 10 -65 15 -95 5
-30 12 -71 15 -90 3 -19 17 -89 31 -155 14 -66 28 -131 30 -145 41 -213 228
-821 319 -1035 7 -16 48 -113 91 -215 68 -162 236 -508 303 -625 156 -271 217
-371 345 -560 44 -66 86 -127 93 -135 6 -8 52 -69 100 -135 88 -118 248 -317
326 -405 136 -153 208 -230 342 -364 83 -83 188 -185 234 -226 46 -41 94 -84
105 -95 12 -11 57 -49 101 -85 44 -36 85 -70 90 -76 15 -16 234 -185 312 -240
37 -27 70 -51 73 -54 6 -8 294 -199 340 -226 19 -12 72 -44 118 -73 46 -28 85
-51 88 -51 2 0 22 -11 44 -25 91 -57 391 -213 550 -285 182 -82 193 -87 295
-129 221 -90 423 -159 790 -271 39 -12 392 -98 425 -104 14 -2 75 -14 135 -26
61 -12 117 -23 125 -24 25 -4 113 -18 140 -22 66 -11 158 -24 210 -30 25 -2
59 -6 75 -9 17 -2 66 -7 110 -10 44 -4 91 -8 105 -11 156 -25 981 -25 1185 0
17 3 66 7 110 11 44 3 87 8 95 10 8 2 42 6 75 10 247 26 662 105 940 180 72
19 137 37 146 39 238 62 625 204 989 362 151 66 539 269 694 362 34 21 69 41
76 45 54 24 377 245 570 388 332 247 736 613 985 893 39 43 79 88 90 100 162
169 496 615 685 915 212 338 455 813 585 1146 107 272 191 526 263 785 52 187
126 517 147 658 3 21 7 49 10 62 4 22 7 43 21 140 3 19 7 47 10 61 2 14 6 51
9 81 3 30 7 64 9 75 3 11 7 56 11 99 4 43 9 95 11 114 26 263 26 914 -1 1185
-2 22 -7 72 -10 110 -3 39 -8 84 -10 100 -3 17 -7 50 -10 75 -3 25 -7 56 -10
70 -2 14 -6 46 -9 72 -3 26 -8 58 -10 70 -3 13 -8 41 -11 63 -5 35 -16 98 -30
177 -33 174 -104 476 -150 633 -54 183 -125 405 -144 450 -5 11 -19 47 -31 80
-12 33 -25 69 -30 80 -33 84 -46 117 -67 162 -12 28 -23 55 -23 58 0 4 -13 36
-30 72 -16 35 -30 66 -30 69 0 8 -188 387 -228 459 -21 39 -53 97 -72 130 -86
157 -365 594 -419 656 -6 8 -48 64 -93 124 -45 61 -84 112 -87 115 -4 3 -42
50 -85 104 -44 55 -86 107 -95 116 -9 9 -41 45 -71 80 -141 163 -392 419 -550
560 -52 47 -97 87 -100 90 -9 9 -85 74 -140 120 -29 25 -58 50 -64 55 -6 6
-38 30 -71 55 -33 25 -62 48 -65 51 -26 31 -397 290 -585 409 -285 179 -760
426 -1011 525 -38 15 -87 36 -109 45 -194 86 -626 227 -934 305 -196 50 -546
118 -711 140 -25 3 -56 8 -70 10 -14 3 -50 7 -80 10 -30 3 -66 8 -80 10 -31 4
-113 12 -210 20 -41 4 -97 9 -125 11 -56 6 -771 14 -777 9z"/>
</g>
</svg>
